<svg width="1441" height="60" viewBox="0 0 1441 60" fill="none" xmlns="http://www.w3.org/2000/svg">
    <mask id="path-1-inside-1_1454_4016" fill="white">
    <path d="M0 0H1441V60H0V0Z"/>
    </mask>
    <path d="M0 0H1441V60H0V0Z" fill="white"/>
    <path d="M1441 60V59H0V60V61H1441V60Z" fill="#E2E8F0" mask="url(#path-1-inside-1_1454_4016)"/>
    <path d="M126.88 34.7556H113.356V35.9088H126.88V34.7556Z" fill="#0F172A"/>
    <path d="M125.637 29.3503H114.59V30.5035H125.637V29.3503Z" fill="#0F172A"/>
    <path d="M72.4721 24.5073C72.0541 24.3268 71.6063 24.2366 71.1186 24.2366H64.5103C64.0227 24.2366 63.5848 24.3268 63.1668 24.5173C62.2811 24.9184 61.664 25.5402 61.2659 26.4326C61.0868 26.8538 60.9972 27.3051 60.9972 27.7864V32.5697C60.9972 33.061 61.0868 33.5123 61.2759 33.9435C61.664 34.8259 62.2811 35.4577 63.1768 35.8588C63.5748 36.0293 64.0326 36.1195 64.5203 36.1195H71.1286C71.6163 36.1195 72.0641 36.0293 72.4921 35.8488C73.3579 35.4577 73.9848 34.8259 74.373 33.9335C74.4228 33.8031 74.4725 33.6627 74.5123 33.5324H73.2683C73.1588 33.7931 72.9896 34.0337 72.7806 34.2443C72.3328 34.6956 71.7655 34.9363 71.1286 34.9363H64.5203C63.8834 34.9363 63.3161 34.6956 62.8683 34.2443C62.4204 33.7931 62.1815 33.2114 62.1815 32.5697V27.7864C62.1815 27.1446 62.4204 26.563 62.8683 26.1118C63.3161 25.6605 63.8834 25.4299 64.5203 25.4299H71.1286C71.7655 25.4299 72.3328 25.6705 72.7806 26.1118C72.9896 26.3224 73.1588 26.563 73.2782 26.8237H74.5223C74.4825 26.6833 74.4327 26.543 74.383 26.4126C73.9749 25.5402 73.3479 24.9084 72.4721 24.5073Z" fill="#0F172A"/>
    <path d="M106.568 24.4873C106.18 24.3168 105.772 24.2366 105.324 24.2366H95.0239V25.4198H105.324C105.882 25.4198 106.379 25.6304 106.767 26.0315C107.165 26.4326 107.364 26.9441 107.364 27.5056C107.364 28.0672 107.155 28.5686 106.767 28.9798C106.369 29.3909 105.872 29.6015 105.314 29.6015H95.0239V36.1396H105.324C105.772 36.1396 106.18 36.0594 106.568 35.8889C106.966 35.7184 107.295 35.4878 107.603 35.1869C108.23 34.5151 108.539 33.763 108.539 32.8805C108.539 32.1285 108.3 31.4466 107.792 30.7948L107.325 30.1931L107.803 29.6015C108.031 29.3207 108.211 28.9998 108.33 28.6488C108.459 28.2778 108.529 27.8967 108.529 27.5357C108.529 26.6332 108.22 25.8711 107.583 25.2093C107.295 24.8884 106.956 24.6577 106.568 24.4873ZM107.374 32.8605C107.374 33.422 107.165 33.9335 106.777 34.3346C106.389 34.7357 105.882 34.9463 105.334 34.9463H96.1983V30.7747H105.334C105.891 30.7747 106.389 30.9853 106.787 31.3964C107.165 31.7975 107.374 32.299 107.374 32.8605Z" fill="#0F172A"/>
    <path d="M126.881 24.3669H113.356V25.5201H126.881V24.3669Z" fill="#0F172A"/>
    <path d="M143.083 32.6299L144.128 32.1385C145.114 31.6772 145.81 30.9652 146.248 29.9524C146.457 29.441 146.567 28.8995 146.567 28.3781C146.567 27.8466 146.457 27.3051 146.238 26.7636C145.791 25.7508 145.074 25.0288 144.059 24.5675C143.571 24.3469 143.063 24.2466 142.506 24.2466L133.061 24.2366V25.4299H142.506C143.292 25.4299 143.989 25.7307 144.546 26.2923C145.104 26.8538 145.392 27.5758 145.392 28.3781C145.392 29.1703 145.104 29.8922 144.546 30.4538C143.989 31.0154 143.282 31.3162 142.506 31.3162H133.061V36.1296H134.226V32.4995H141.561L144.208 36.1296H145.651L143.083 32.6299Z" fill="#0F172A"/>
    <path d="M79.8267 24.3765C79.8267 24.3765 78.304 24.3765 78.2543 24.3765C78.2941 24.4166 84.2853 30.7241 84.2853 30.7241C84.2853 30.7241 84.2853 33.9531 84.2853 35.8082C84.2853 35.8584 84.2853 35.9085 84.2853 35.9486C84.753 35.9486 85.0019 35.9486 85.4597 35.9486C85.4597 35.9286 85.4696 30.323 85.4696 30.323L79.8267 24.3765Z" fill="#0F172A"/>
    <path d="M90.0975 24.3669C90.0975 24.3669 85.9873 28.5485 85.7285 28.8093C86.037 29.1201 86.2361 29.3307 86.5446 29.6516C88.1768 27.9669 90.0478 26.0717 91.6999 24.377C91.1226 24.3669 90.0975 24.3669 90.0975 24.3669Z" fill="#0F172A"/>
    <path d="M158.658 27.7062L162.669 24.3669H160.768L153.254 30.4538V24.3669H152.04V35.949H153.254V32.0382L157.713 28.4783L163.087 35.949H164.57L158.658 27.7062Z" fill="#0F172A"/>
    <path d="M42.6233 18.3552L32 24.1776V35.8223L42.6233 41.6446L53.2466 35.8223V24.1776L42.6233 18.3552ZM33.0787 25.4519L41.9921 40.1168L33.0787 35.2311V25.4519ZM43.1746 30.3003L50.3867 26.345L43.1746 38.2013V30.3003ZM42.6336 29.4153L35.4061 25.4486H49.8644L42.6336 29.4153ZM42.0959 30.3035V38.24L34.8583 26.3304L42.0959 30.302V30.3035ZM52.168 25.4631V35.2328L43.2545 40.1184L52.168 25.4631ZM33.7065 24.4247L42.6233 19.5375L51.5385 24.4247H33.7082H33.7065Z" fill="#0F172A"/>
    <path d="M207.119 24.8182H208.983L212.224 32.733H212.344L215.585 24.8182H217.45V35H215.988V27.6321H215.893L212.891 34.9851H211.678L208.675 27.6271H208.58V35H207.119V24.8182ZM219.564 35V27.3636H221.05V35H219.564ZM220.314 26.1854C220.056 26.1854 219.834 26.0992 219.648 25.9268C219.466 25.7512 219.375 25.5424 219.375 25.3004C219.375 25.0552 219.466 24.8464 219.648 24.674C219.834 24.4983 220.056 24.4105 220.314 24.4105C220.573 24.4105 220.793 24.4983 220.976 24.674C221.161 24.8464 221.254 25.0552 221.254 25.3004C221.254 25.5424 221.161 25.7512 220.976 25.9268C220.793 26.0992 220.573 26.1854 220.314 26.1854ZM224.537 30.4659V35H223.05V27.3636H224.477V28.6065H224.571C224.747 28.2022 225.022 27.8774 225.397 27.6321C225.775 27.3868 226.25 27.2642 226.824 27.2642C227.344 27.2642 227.8 27.3736 228.191 27.5923C228.582 27.8078 228.885 28.1293 229.1 28.5568C229.316 28.9844 229.424 29.513 229.424 30.1428V35H227.937V30.3217C227.937 29.7682 227.793 29.3357 227.505 29.0241C227.216 28.7093 226.82 28.5518 226.316 28.5518C225.972 28.5518 225.665 28.6264 225.397 28.7756C225.132 28.9247 224.921 29.1435 224.765 29.4318C224.613 29.7169 224.537 30.0616 224.537 30.4659ZM234.982 27.3636V28.5568H230.811V27.3636H234.982ZM231.929 25.5341H233.416V32.7578C233.416 33.0462 233.459 33.2633 233.545 33.4091C233.631 33.5516 233.742 33.6494 233.878 33.7024C234.017 33.7521 234.168 33.777 234.331 33.777C234.45 33.777 234.554 33.7687 234.644 33.7521C234.733 33.7356 234.803 33.7223 234.853 33.7124L235.121 34.9403C235.035 34.9735 234.912 35.0066 234.753 35.0398C234.594 35.0762 234.395 35.0961 234.157 35.0994C233.766 35.1061 233.401 35.0365 233.063 34.8906C232.725 34.7448 232.451 34.5194 232.243 34.2145C232.034 33.9096 231.929 33.5268 231.929 33.0661V25.5341Z" fill="#0F172A"/>
    <path d="M282.672 27.4929C282.619 27.0223 282.4 26.6577 282.016 26.3991C281.631 26.1373 281.147 26.0064 280.564 26.0064C280.146 26.0064 279.785 26.0727 279.48 26.2053C279.175 26.3345 278.938 26.5135 278.769 26.7422C278.603 26.9676 278.521 27.2244 278.521 27.5128C278.521 27.7547 278.577 27.9635 278.69 28.1392C278.806 28.3149 278.956 28.4624 279.142 28.5817C279.331 28.6977 279.533 28.7955 279.749 28.875C279.964 28.9512 280.171 29.0142 280.37 29.0639L281.364 29.3224C281.689 29.402 282.022 29.5097 282.364 29.6456C282.705 29.7815 283.022 29.9605 283.313 30.1825C283.605 30.4046 283.84 30.6797 284.019 31.0078C284.201 31.3359 284.293 31.7287 284.293 32.1861C284.293 32.7628 284.143 33.2749 283.845 33.7223C283.55 34.1697 283.121 34.5227 282.558 34.7812C281.997 35.0398 281.32 35.169 280.524 35.169C279.762 35.169 279.102 35.0481 278.545 34.8061C277.989 34.5642 277.553 34.2211 277.238 33.777C276.923 33.3295 276.749 32.7992 276.716 32.1861H278.257C278.287 32.554 278.406 32.8606 278.615 33.1058C278.827 33.3478 279.097 33.5284 279.425 33.6477C279.757 33.7637 280.12 33.8217 280.514 33.8217C280.948 33.8217 281.335 33.7538 281.673 33.6179C282.014 33.4787 282.282 33.2865 282.478 33.0412C282.674 32.7926 282.771 32.5026 282.771 32.1712C282.771 31.8696 282.685 31.6226 282.513 31.4304C282.344 31.2382 282.113 31.0791 281.822 30.9531C281.533 30.8272 281.207 30.7161 280.842 30.62L279.639 30.2919C278.824 30.0698 278.178 29.7434 277.7 29.3125C277.226 28.8816 276.989 28.3116 276.989 27.6023C276.989 27.0156 277.148 26.5036 277.467 26.0661C277.785 25.6286 278.216 25.2888 278.759 25.0469C279.303 24.8016 279.916 24.679 280.599 24.679C281.288 24.679 281.896 24.8 282.423 25.0419C282.954 25.2839 283.371 25.617 283.676 26.0412C283.981 26.4621 284.14 26.946 284.153 27.4929H282.672ZM289.574 27.3636V28.5568H285.403V27.3636H289.574ZM286.521 25.5341H288.008V32.7578C288.008 33.0462 288.051 33.2633 288.137 33.4091C288.223 33.5516 288.334 33.6494 288.47 33.7024C288.609 33.7521 288.76 33.777 288.922 33.777C289.042 33.777 289.146 33.7687 289.236 33.7521C289.325 33.7356 289.395 33.7223 289.444 33.7124L289.713 34.9403C289.627 34.9735 289.504 35.0066 289.345 35.0398C289.186 35.0762 288.987 35.0961 288.748 35.0994C288.357 35.1061 287.993 35.0365 287.655 34.8906C287.317 34.7448 287.043 34.5194 286.834 34.2145C286.626 33.9096 286.521 33.5268 286.521 33.0661V25.5341ZM293.44 35.169C292.956 35.169 292.519 35.0795 292.128 34.9006C291.737 34.7183 291.427 34.4548 291.198 34.1101C290.973 33.7654 290.86 33.3428 290.86 32.8423C290.86 32.4115 290.943 32.0568 291.109 31.7784C291.274 31.5 291.498 31.2796 291.78 31.1172C292.062 30.9548 292.376 30.8321 292.724 30.7493C293.072 30.6664 293.427 30.6035 293.788 30.5604C294.246 30.5073 294.617 30.4643 294.902 30.4311C295.187 30.3946 295.394 30.3366 295.523 30.2571C295.653 30.1776 295.717 30.0483 295.717 29.8693V29.8345C295.717 29.4003 295.595 29.0639 295.349 28.8253C295.107 28.5866 294.746 28.4673 294.266 28.4673C293.765 28.4673 293.371 28.5784 293.082 28.8004C292.797 29.0192 292.6 29.2628 292.491 29.5312L291.094 29.2131C291.259 28.7491 291.501 28.3745 291.82 28.0895C292.141 27.8011 292.511 27.5923 292.928 27.4631C293.346 27.3305 293.785 27.2642 294.246 27.2642C294.551 27.2642 294.874 27.3007 295.215 27.3736C295.56 27.4432 295.881 27.5724 296.18 27.7614C296.481 27.9503 296.728 28.2204 296.92 28.5717C297.113 28.9197 297.209 29.3722 297.209 29.929V35H295.757V33.956H295.697C295.601 34.1482 295.457 34.3371 295.265 34.5227C295.073 34.7083 294.826 34.8625 294.524 34.9851C294.223 35.1077 293.861 35.169 293.44 35.169ZM293.763 33.9759C294.174 33.9759 294.526 33.8946 294.817 33.7322C295.112 33.5698 295.336 33.3577 295.489 33.0959C295.644 32.8307 295.722 32.5473 295.722 32.2457V31.2614C295.669 31.3144 295.567 31.3641 295.414 31.4105C295.265 31.4536 295.094 31.4917 294.902 31.5249C294.71 31.5547 294.522 31.5829 294.34 31.6094C294.158 31.6326 294.005 31.6525 293.883 31.669C293.594 31.7055 293.331 31.7668 293.092 31.853C292.857 31.9392 292.668 32.0634 292.526 32.2259C292.386 32.3849 292.317 32.5971 292.317 32.8622C292.317 33.2301 292.453 33.5085 292.724 33.6974C292.996 33.883 293.343 33.9759 293.763 33.9759ZM300.556 32.4098L300.546 30.5952H300.805L303.847 27.3636H305.627L302.157 31.0426H301.923L300.556 32.4098ZM299.189 35V24.8182H300.675V35H299.189ZM304.011 35L301.277 31.3707L302.301 30.3317L305.836 35H304.011ZM309.958 35.1541C309.206 35.1541 308.558 34.9934 308.015 34.6719C307.474 34.3471 307.057 33.8913 306.762 33.3047C306.47 32.7147 306.324 32.0237 306.324 31.2315C306.324 30.4493 306.47 29.7599 306.762 29.1634C307.057 28.5668 307.468 28.1011 307.995 27.7663C308.525 27.4316 309.145 27.2642 309.854 27.2642C310.285 27.2642 310.703 27.3355 311.107 27.478C311.511 27.6205 311.874 27.8442 312.196 28.1491C312.517 28.4541 312.771 28.8501 312.956 29.3374C313.142 29.8213 313.235 30.4096 313.235 31.1023V31.6293H307.164V30.5156H311.778C311.778 30.1245 311.699 29.7782 311.539 29.4766C311.38 29.1716 311.157 28.9313 310.868 28.7557C310.583 28.58 310.248 28.4922 309.864 28.4922C309.446 28.4922 309.082 28.5949 308.77 28.8004C308.462 29.0026 308.223 29.2678 308.054 29.5959C307.889 29.9207 307.806 30.2737 307.806 30.6548V31.5249C307.806 32.0353 307.895 32.4695 308.074 32.8274C308.257 33.1854 308.51 33.4588 308.835 33.6477C309.16 33.8333 309.539 33.9261 309.973 33.9261C310.255 33.9261 310.512 33.8864 310.744 33.8068C310.976 33.724 311.176 33.6013 311.346 33.4389C311.515 33.2765 311.644 33.076 311.733 32.8374L313.14 33.0909C313.028 33.5052 312.825 33.8681 312.534 34.1797C312.245 34.4879 311.882 34.7282 311.445 34.9006C311.011 35.0696 310.515 35.1541 309.958 35.1541Z" fill="#64748B"/>
    <path d="M358.415 35H355.119V24.8182H358.519C359.517 24.8182 360.374 25.022 361.089 25.4297C361.805 25.834 362.354 26.4157 362.735 27.1747C363.12 27.9304 363.312 28.8369 363.312 29.8942C363.312 30.9548 363.118 31.8662 362.73 32.6286C362.346 33.3909 361.789 33.9775 361.06 34.3885C360.33 34.7962 359.449 35 358.415 35ZM356.655 33.6577H358.33C359.106 33.6577 359.75 33.5118 360.264 33.2202C360.778 32.9252 361.162 32.4993 361.418 31.9425C361.673 31.3823 361.8 30.6996 361.8 29.8942C361.8 29.0954 361.673 28.4176 361.418 27.8608C361.166 27.304 360.79 26.8814 360.289 26.593C359.789 26.3047 359.167 26.1605 358.425 26.1605H356.655V33.6577ZM367.325 35.169C366.841 35.169 366.404 35.0795 366.013 34.9006C365.622 34.7183 365.312 34.4548 365.083 34.1101C364.858 33.7654 364.745 33.3428 364.745 32.8423C364.745 32.4115 364.828 32.0568 364.993 31.7784C365.159 31.5 365.383 31.2796 365.665 31.1172C365.946 30.9548 366.261 30.8321 366.609 30.7493C366.957 30.6664 367.312 30.6035 367.673 30.5604C368.131 30.5073 368.502 30.4643 368.787 30.4311C369.072 30.3946 369.279 30.3366 369.408 30.2571C369.537 30.1776 369.602 30.0483 369.602 29.8693V29.8345C369.602 29.4003 369.479 29.0639 369.234 28.8253C368.992 28.5866 368.631 28.4673 368.15 28.4673C367.65 28.4673 367.256 28.5784 366.967 28.8004C366.682 29.0192 366.485 29.2628 366.376 29.5312L364.979 29.2131C365.144 28.7491 365.386 28.3745 365.704 28.0895C366.026 27.8011 366.395 27.5923 366.813 27.4631C367.231 27.3305 367.67 27.2642 368.131 27.2642C368.435 27.2642 368.759 27.3007 369.1 27.3736C369.445 27.4432 369.766 27.5724 370.064 27.7614C370.366 27.9503 370.613 28.2204 370.805 28.5717C370.997 28.9197 371.094 29.3722 371.094 29.929V35H369.642V33.956H369.582C369.486 34.1482 369.342 34.3371 369.15 34.5227C368.957 34.7083 368.711 34.8625 368.409 34.9851C368.107 35.1077 367.746 35.169 367.325 35.169ZM367.648 33.9759C368.059 33.9759 368.411 33.8946 368.702 33.7322C368.997 33.5698 369.221 33.3577 369.373 33.0959C369.529 32.8307 369.607 32.5473 369.607 32.2457V31.2614C369.554 31.3144 369.451 31.3641 369.299 31.4105C369.15 31.4536 368.979 31.4917 368.787 31.5249C368.595 31.5547 368.407 31.5829 368.225 31.6094C368.043 31.6326 367.89 31.6525 367.768 31.669C367.479 31.7055 367.216 31.7668 366.977 31.853C366.742 31.9392 366.553 32.0634 366.41 32.2259C366.271 32.3849 366.202 32.5971 366.202 32.8622C366.202 33.2301 366.337 33.5085 366.609 33.6974C366.881 33.883 367.227 33.9759 367.648 33.9759ZM378.796 29.228L377.449 29.4666C377.392 29.2943 377.303 29.1302 377.18 28.9744C377.061 28.8187 376.898 28.6911 376.693 28.5916C376.487 28.4922 376.23 28.4425 375.922 28.4425C375.501 28.4425 375.15 28.5369 374.868 28.7259C374.587 28.9115 374.446 29.1518 374.446 29.4467C374.446 29.7019 374.54 29.9074 374.729 30.0632C374.918 30.219 375.223 30.3466 375.644 30.446L376.857 30.7244C377.56 30.8868 378.083 31.1371 378.428 31.4751C378.773 31.8132 378.945 32.2524 378.945 32.7926C378.945 33.25 378.812 33.6577 378.547 34.0156C378.285 34.3703 377.919 34.6487 377.449 34.8509C376.981 35.053 376.439 35.1541 375.823 35.1541C374.968 35.1541 374.27 34.9718 373.73 34.6072C373.19 34.2393 372.858 33.7173 372.735 33.0412L374.172 32.8224C374.262 33.197 374.446 33.4804 374.724 33.6726C375.002 33.8615 375.365 33.956 375.813 33.956C376.3 33.956 376.69 33.8549 376.981 33.6527C377.273 33.4472 377.419 33.197 377.419 32.902C377.419 32.6634 377.329 32.4628 377.15 32.3004C376.975 32.138 376.704 32.0154 376.34 31.9325L375.047 31.6491C374.335 31.4867 373.808 31.2282 373.466 30.8736C373.128 30.5189 372.959 30.0698 372.959 29.5263C372.959 29.0755 373.085 28.6811 373.337 28.343C373.589 28.005 373.937 27.7415 374.381 27.5526C374.825 27.3603 375.334 27.2642 375.907 27.2642C376.733 27.2642 377.382 27.4432 377.856 27.8011C378.33 28.1558 378.643 28.6314 378.796 29.228ZM382.066 30.4659V35H380.579V24.8182H382.046V28.6065H382.14C382.319 28.1955 382.593 27.8691 382.961 27.6271C383.329 27.3852 383.809 27.2642 384.403 27.2642C384.926 27.2642 385.384 27.3719 385.775 27.5874C386.169 27.8028 386.474 28.1243 386.689 28.5518C386.908 28.9761 387.018 29.5064 387.018 30.1428V35H385.531V30.3217C385.531 29.7616 385.387 29.3274 385.099 29.0192C384.81 28.7076 384.409 28.5518 383.895 28.5518C383.544 28.5518 383.229 28.6264 382.951 28.7756C382.676 28.9247 382.459 29.1435 382.3 29.4318C382.144 29.7169 382.066 30.0616 382.066 30.4659ZM389.121 35V24.8182H390.607V28.6016H390.697C390.783 28.4425 390.907 28.2585 391.069 28.0497C391.232 27.8409 391.457 27.6586 391.746 27.5028C392.034 27.3438 392.415 27.2642 392.889 27.2642C393.506 27.2642 394.056 27.42 394.54 27.7315C395.023 28.0431 395.403 28.4922 395.678 29.0788C395.956 29.6655 396.096 30.3714 396.096 31.1967C396.096 32.022 395.958 32.7296 395.683 33.3196C395.408 33.9062 395.03 34.3587 394.55 34.6768C394.069 34.9917 393.52 35.1491 392.904 35.1491C392.44 35.1491 392.06 35.0713 391.765 34.9155C391.474 34.7597 391.245 34.5774 391.079 34.3686C390.914 34.1598 390.786 33.9742 390.697 33.8118H390.572V35H389.121ZM390.577 31.1818C390.577 31.7187 390.655 32.1894 390.811 32.5938C390.967 32.9981 391.192 33.3146 391.487 33.5433C391.782 33.7687 392.143 33.8814 392.571 33.8814C393.015 33.8814 393.386 33.7637 393.684 33.5284C393.983 33.2898 394.208 32.9666 394.361 32.5589C394.516 32.1513 394.594 31.6922 394.594 31.1818C394.594 30.678 394.518 30.2256 394.366 29.8246C394.216 29.4235 393.991 29.107 393.689 28.875C393.391 28.643 393.018 28.527 392.571 28.527C392.14 28.527 391.775 28.638 391.477 28.8601C391.182 29.0821 390.958 29.392 390.806 29.7898C390.653 30.1875 390.577 30.6515 390.577 31.1818ZM400.982 35.1541C400.266 35.1541 399.641 34.9901 399.107 34.6619C398.574 34.3338 398.159 33.8748 397.864 33.2848C397.569 32.6948 397.422 32.0054 397.422 31.2166C397.422 30.4245 397.569 29.7318 397.864 29.1385C398.159 28.5452 398.574 28.0845 399.107 27.7564C399.641 27.4283 400.266 27.2642 400.982 27.2642C401.697 27.2642 402.322 27.4283 402.856 27.7564C403.389 28.0845 403.804 28.5452 404.099 29.1385C404.394 29.7318 404.541 30.4245 404.541 31.2166C404.541 32.0054 404.394 32.6948 404.099 33.2848C403.804 33.8748 403.389 34.3338 402.856 34.6619C402.322 34.9901 401.697 35.1541 400.982 35.1541ZM400.987 33.9062C401.451 33.9062 401.835 33.7836 402.14 33.5384C402.445 33.2931 402.67 32.9666 402.816 32.5589C402.965 32.1513 403.04 31.7022 403.04 31.2116C403.04 30.7244 402.965 30.277 402.816 29.8693C402.67 29.4583 402.445 29.1286 402.14 28.88C401.835 28.6314 401.451 28.5071 400.987 28.5071C400.519 28.5071 400.131 28.6314 399.823 28.88C399.518 29.1286 399.291 29.4583 399.142 29.8693C398.996 30.277 398.923 30.7244 398.923 31.2116C398.923 31.7022 398.996 32.1513 399.142 32.5589C399.291 32.9666 399.518 33.2931 399.823 33.5384C400.131 33.7836 400.519 33.9062 400.987 33.9062ZM408.423 35.169C407.939 35.169 407.501 35.0795 407.11 34.9006C406.719 34.7183 406.409 34.4548 406.181 34.1101C405.955 33.7654 405.843 33.3428 405.843 32.8423C405.843 32.4115 405.925 32.0568 406.091 31.7784C406.257 31.5 406.481 31.2796 406.762 31.1172C407.044 30.9548 407.359 30.8321 407.707 30.7493C408.055 30.6664 408.41 30.6035 408.771 30.5604C409.228 30.5073 409.599 30.4643 409.884 30.4311C410.169 30.3946 410.377 30.3366 410.506 30.2571C410.635 30.1776 410.7 30.0483 410.7 29.8693V29.8345C410.7 29.4003 410.577 29.0639 410.332 28.8253C410.09 28.5866 409.729 28.4673 409.248 28.4673C408.748 28.4673 408.353 28.5784 408.065 28.8004C407.78 29.0192 407.583 29.2628 407.473 29.5312L406.076 29.2131C406.242 28.7491 406.484 28.3745 406.802 28.0895C407.124 27.8011 407.493 27.5923 407.911 27.4631C408.328 27.3305 408.767 27.2642 409.228 27.2642C409.533 27.2642 409.856 27.3007 410.198 27.3736C410.542 27.4432 410.864 27.5724 411.162 27.7614C411.464 27.9503 411.711 28.2204 411.903 28.5717C412.095 28.9197 412.191 29.3722 412.191 29.929V35H410.74V33.956H410.68C410.584 34.1482 410.44 34.3371 410.247 34.5227C410.055 34.7083 409.808 34.8625 409.507 34.9851C409.205 35.1077 408.844 35.169 408.423 35.169ZM408.746 33.9759C409.157 33.9759 409.508 33.8946 409.8 33.7322C410.095 33.5698 410.319 33.3577 410.471 33.0959C410.627 32.8307 410.705 32.5473 410.705 32.2457V31.2614C410.652 31.3144 410.549 31.3641 410.396 31.4105C410.247 31.4536 410.077 31.4917 409.884 31.5249C409.692 31.5547 409.505 31.5829 409.323 31.6094C409.14 31.6326 408.988 31.6525 408.865 31.669C408.577 31.7055 408.313 31.7668 408.075 31.853C407.839 31.9392 407.651 32.0634 407.508 32.2259C407.369 32.3849 407.299 32.5971 407.299 32.8622C407.299 33.2301 407.435 33.5085 407.707 33.6974C407.979 33.883 408.325 33.9759 408.746 33.9759ZM414.171 35V27.3636H415.608V28.5767H415.688C415.827 28.1657 416.072 27.8426 416.423 27.6072C416.778 27.3686 417.179 27.2493 417.626 27.2493C417.719 27.2493 417.829 27.2526 417.955 27.2592C418.084 27.2659 418.185 27.2741 418.258 27.2841V28.706C418.198 28.6894 418.092 28.6712 417.94 28.6513C417.787 28.6281 417.635 28.6165 417.482 28.6165C417.131 28.6165 416.818 28.6911 416.543 28.8402C416.271 28.986 416.055 29.1899 415.896 29.4517C415.737 29.7102 415.658 30.0052 415.658 30.3366V35H414.171ZM422.129 35.1491C421.513 35.1491 420.963 34.9917 420.479 34.6768C419.998 34.3587 419.62 33.9062 419.345 33.3196C419.074 32.7296 418.938 32.022 418.938 31.1967C418.938 30.3714 419.075 29.6655 419.35 29.0788C419.629 28.4922 420.01 28.0431 420.494 27.7315C420.978 27.42 421.526 27.2642 422.139 27.2642C422.613 27.2642 422.994 27.3438 423.283 27.5028C423.575 27.6586 423.8 27.8409 423.959 28.0497C424.121 28.2585 424.247 28.4425 424.337 28.6016H424.426V24.8182H425.913V35H424.461V33.8118H424.337C424.247 33.9742 424.118 34.1598 423.949 34.3686C423.783 34.5774 423.555 34.7597 423.263 34.9155C422.971 35.0713 422.593 35.1491 422.129 35.1491ZM422.458 33.8814C422.885 33.8814 423.246 33.7687 423.541 33.5433C423.84 33.3146 424.065 32.9981 424.218 32.5938C424.373 32.1894 424.451 31.7187 424.451 31.1818C424.451 30.6515 424.375 30.1875 424.222 29.7898C424.07 29.392 423.846 29.0821 423.551 28.8601C423.256 28.638 422.892 28.527 422.458 28.527C422.01 28.527 421.637 28.643 421.339 28.875C421.041 29.107 420.815 29.4235 420.663 29.8246C420.514 30.2256 420.439 30.678 420.439 31.1818C420.439 31.6922 420.515 32.1513 420.668 32.5589C420.82 32.9666 421.046 33.2898 421.344 33.5284C421.646 33.7637 422.017 33.8814 422.458 33.8814Z" fill="#64748B"/>
    <path d="M469.119 35V24.8182H472.748C473.54 24.8182 474.196 24.9624 474.717 25.2507C475.237 25.5391 475.626 25.9335 475.885 26.4339C476.143 26.9311 476.273 27.4912 476.273 28.1143C476.273 28.7408 476.142 29.3042 475.88 29.8047C475.621 30.3018 475.23 30.6963 474.707 30.9879C474.186 31.2763 473.532 31.4205 472.743 31.4205H470.247V30.1179H472.604C473.104 30.1179 473.51 30.0317 473.822 29.8594C474.133 29.6837 474.362 29.4451 474.508 29.1435C474.654 28.8419 474.727 28.4988 474.727 28.1143C474.727 27.7299 474.654 27.3885 474.508 27.0902C474.362 26.7919 474.132 26.5582 473.817 26.3892C473.505 26.2202 473.094 26.1357 472.584 26.1357H470.655V35H469.119ZM477.954 35V27.3636H479.391V28.5767H479.471C479.61 28.1657 479.855 27.8426 480.206 27.6072C480.561 27.3686 480.962 27.2493 481.41 27.2493C481.502 27.2493 481.612 27.2526 481.738 27.2592C481.867 27.2659 481.968 27.2741 482.041 27.2841V28.706C481.981 28.6894 481.875 28.6712 481.723 28.6513C481.57 28.6281 481.418 28.6165 481.265 28.6165C480.914 28.6165 480.601 28.6911 480.326 28.8402C480.054 28.986 479.839 29.1899 479.68 29.4517C479.52 29.7102 479.441 30.0052 479.441 30.3366V35H477.954ZM486.271 35.1541C485.555 35.1541 484.93 34.9901 484.396 34.6619C483.863 34.3338 483.448 33.8748 483.153 33.2848C482.858 32.6948 482.711 32.0054 482.711 31.2166C482.711 30.4245 482.858 29.7318 483.153 29.1385C483.448 28.5452 483.863 28.0845 484.396 27.7564C484.93 27.4283 485.555 27.2642 486.271 27.2642C486.987 27.2642 487.611 27.4283 488.145 27.7564C488.679 28.0845 489.093 28.5452 489.388 29.1385C489.683 29.7318 489.83 30.4245 489.83 31.2166C489.83 32.0054 489.683 32.6948 489.388 33.2848C489.093 33.8748 488.679 34.3338 488.145 34.6619C487.611 34.9901 486.987 35.1541 486.271 35.1541ZM486.276 33.9062C486.74 33.9062 487.124 33.7836 487.429 33.5384C487.734 33.2931 487.959 32.9666 488.105 32.5589C488.254 32.1513 488.329 31.7022 488.329 31.2116C488.329 30.7244 488.254 30.277 488.105 29.8693C487.959 29.4583 487.734 29.1286 487.429 28.88C487.124 28.6314 486.74 28.5071 486.276 28.5071C485.808 28.5071 485.42 28.6314 485.112 28.88C484.807 29.1286 484.58 29.4583 484.431 29.8693C484.285 30.277 484.212 30.7244 484.212 31.2116C484.212 31.7022 484.285 32.1513 484.431 32.5589C484.58 32.9666 484.807 33.2931 485.112 33.5384C485.42 33.7836 485.808 33.9062 486.276 33.9062ZM495.124 27.3636V28.5568H490.808V27.3636H495.124ZM491.992 35V26.4787C491.992 26.0014 492.096 25.6053 492.305 25.2905C492.514 24.9723 492.79 24.7353 493.135 24.5795C493.48 24.4205 493.854 24.3409 494.259 24.3409C494.557 24.3409 494.812 24.3658 495.024 24.4155C495.236 24.4619 495.394 24.505 495.497 24.5447L495.149 25.7479C495.079 25.728 494.99 25.7048 494.88 25.6783C494.771 25.6484 494.638 25.6335 494.482 25.6335C494.121 25.6335 493.863 25.723 493.707 25.902C493.554 26.081 493.478 26.3395 493.478 26.6776V35H491.992ZM496.657 35V27.3636H498.144V35H496.657ZM497.408 26.1854C497.15 26.1854 496.928 26.0992 496.742 25.9268C496.56 25.7512 496.469 25.5424 496.469 25.3004C496.469 25.0552 496.56 24.8464 496.742 24.674C496.928 24.4983 497.15 24.4105 497.408 24.4105C497.667 24.4105 497.887 24.4983 498.069 24.674C498.255 24.8464 498.348 25.0552 498.348 25.3004C498.348 25.5424 498.255 25.7512 498.069 25.9268C497.887 26.0992 497.667 26.1854 497.408 26.1854ZM501.63 24.8182V35H500.144V24.8182H501.63ZM506.921 35.1541C506.169 35.1541 505.521 34.9934 504.977 34.6719C504.437 34.3471 504.02 33.8913 503.725 33.3047C503.433 32.7147 503.287 32.0237 503.287 31.2315C503.287 30.4493 503.433 29.7599 503.725 29.1634C504.02 28.5668 504.431 28.1011 504.958 27.7663C505.488 27.4316 506.108 27.2642 506.817 27.2642C507.248 27.2642 507.665 27.3355 508.07 27.478C508.474 27.6205 508.837 27.8442 509.159 28.1491C509.48 28.4541 509.734 28.8501 509.919 29.3374C510.105 29.8213 510.198 30.4096 510.198 31.1023V31.6293H504.127V30.5156H508.741C508.741 30.1245 508.661 29.7782 508.502 29.4766C508.343 29.1716 508.119 28.9313 507.831 28.7557C507.546 28.58 507.211 28.4922 506.827 28.4922C506.409 28.4922 506.045 28.5949 505.733 28.8004C505.425 29.0026 505.186 29.2678 505.017 29.5959C504.852 29.9207 504.769 30.2737 504.769 30.6548V31.5249C504.769 32.0353 504.858 32.4695 505.037 32.8274C505.219 33.1854 505.473 33.4588 505.798 33.6477C506.123 33.8333 506.502 33.9261 506.936 33.9261C507.218 33.9261 507.475 33.8864 507.707 33.8068C507.939 33.724 508.139 33.6013 508.308 33.4389C508.477 33.2765 508.607 33.076 508.696 32.8374L510.103 33.0909C509.99 33.5052 509.788 33.8681 509.497 34.1797C509.208 34.4879 508.845 34.7282 508.408 34.9006C507.974 35.0696 507.478 35.1541 506.921 35.1541Z" fill="#64748B"/>
    <path d="M1071.67 27.4929C1071.62 27.0223 1071.4 26.6577 1071.02 26.3991C1070.63 26.1373 1070.15 26.0064 1069.56 26.0064C1069.15 26.0064 1068.79 26.0727 1068.48 26.2053C1068.18 26.3345 1067.94 26.5135 1067.77 26.7422C1067.6 26.9676 1067.52 27.2244 1067.52 27.5128C1067.52 27.7547 1067.58 27.9635 1067.69 28.1392C1067.81 28.3149 1067.96 28.4624 1068.14 28.5817C1068.33 28.6977 1068.53 28.7955 1068.75 28.875C1068.96 28.9512 1069.17 29.0142 1069.37 29.0639L1070.36 29.3224C1070.69 29.402 1071.02 29.5097 1071.36 29.6456C1071.71 29.7815 1072.02 29.9605 1072.31 30.1825C1072.6 30.4046 1072.84 30.6797 1073.02 31.0078C1073.2 31.3359 1073.29 31.7287 1073.29 32.1861C1073.29 32.7628 1073.14 33.2749 1072.85 33.7223C1072.55 34.1697 1072.12 34.5227 1071.56 34.7812C1071 35.0398 1070.32 35.169 1069.52 35.169C1068.76 35.169 1068.1 35.0481 1067.55 34.8061C1066.99 34.5642 1066.55 34.2211 1066.24 33.777C1065.92 33.3295 1065.75 32.7992 1065.72 32.1861H1067.26C1067.29 32.554 1067.41 32.8606 1067.62 33.1058C1067.83 33.3478 1068.1 33.5284 1068.43 33.6477C1068.76 33.7637 1069.12 33.8217 1069.51 33.8217C1069.95 33.8217 1070.33 33.7538 1070.67 33.6179C1071.01 33.4787 1071.28 33.2865 1071.48 33.0412C1071.67 32.7926 1071.77 32.5026 1071.77 32.1712C1071.77 31.8696 1071.69 31.6226 1071.51 31.4304C1071.34 31.2382 1071.11 31.0791 1070.82 30.9531C1070.53 30.8272 1070.21 30.7161 1069.84 30.62L1068.64 30.2919C1067.82 30.0698 1067.18 29.7434 1066.7 29.3125C1066.23 28.8816 1065.99 28.3116 1065.99 27.6023C1065.99 27.0156 1066.15 26.5036 1066.47 26.0661C1066.78 25.6286 1067.22 25.2888 1067.76 25.0469C1068.3 24.8016 1068.92 24.679 1069.6 24.679C1070.29 24.679 1070.9 24.8 1071.42 25.0419C1071.95 25.2839 1072.37 25.617 1072.68 26.0412C1072.98 26.4621 1073.14 26.946 1073.15 27.4929H1071.67ZM1078.3 35.1541C1077.55 35.1541 1076.9 34.9934 1076.36 34.6719C1075.82 34.3471 1075.4 33.8913 1075.1 33.3047C1074.81 32.7147 1074.67 32.0237 1074.67 31.2315C1074.67 30.4493 1074.81 29.7599 1075.1 29.1634C1075.4 28.5668 1075.81 28.1011 1076.34 27.7663C1076.87 27.4316 1077.49 27.2642 1078.2 27.2642C1078.63 27.2642 1079.04 27.3355 1079.45 27.478C1079.85 27.6205 1080.22 27.8442 1080.54 28.1491C1080.86 28.4541 1081.11 28.8501 1081.3 29.3374C1081.48 29.8213 1081.58 30.4096 1081.58 31.1023V31.6293H1075.51V30.5156H1080.12C1080.12 30.1245 1080.04 29.7782 1079.88 29.4766C1079.72 29.1716 1079.5 28.9313 1079.21 28.7557C1078.93 28.58 1078.59 28.4922 1078.21 28.4922C1077.79 28.4922 1077.42 28.5949 1077.11 28.8004C1076.8 29.0026 1076.57 29.2678 1076.4 29.5959C1076.23 29.9207 1076.15 30.2737 1076.15 30.6548V31.5249C1076.15 32.0353 1076.24 32.4695 1076.42 32.8274C1076.6 33.1854 1076.85 33.4588 1077.18 33.6477C1077.5 33.8333 1077.88 33.9261 1078.32 33.9261C1078.6 33.9261 1078.85 33.8864 1079.09 33.8068C1079.32 33.724 1079.52 33.6013 1079.69 33.4389C1079.86 33.2765 1079.99 33.076 1080.08 32.8374L1081.48 33.0909C1081.37 33.5052 1081.17 33.8681 1080.88 34.1797C1080.59 34.4879 1080.22 34.7282 1079.79 34.9006C1079.35 35.0696 1078.86 35.1541 1078.3 35.1541ZM1086.79 27.3636V28.5568H1082.62V27.3636H1086.79ZM1083.74 25.5341H1085.22V32.7578C1085.22 33.0462 1085.27 33.2633 1085.35 33.4091C1085.44 33.5516 1085.55 33.6494 1085.69 33.7024C1085.83 33.7521 1085.98 33.777 1086.14 33.777C1086.26 33.777 1086.36 33.7687 1086.45 33.7521C1086.54 33.7356 1086.61 33.7223 1086.66 33.7124L1086.93 34.9403C1086.84 34.9735 1086.72 35.0066 1086.56 35.0398C1086.4 35.0762 1086.2 35.0961 1085.97 35.0994C1085.57 35.1061 1085.21 35.0365 1084.87 34.8906C1084.53 34.7448 1084.26 34.5194 1084.05 34.2145C1083.84 33.9096 1083.74 33.5268 1083.74 33.0661V25.5341ZM1092 27.3636V28.5568H1087.83V27.3636H1092ZM1088.95 25.5341H1090.43V32.7578C1090.43 33.0462 1090.48 33.2633 1090.56 33.4091C1090.65 33.5516 1090.76 33.6494 1090.9 33.7024C1091.03 33.7521 1091.19 33.777 1091.35 33.777C1091.47 33.777 1091.57 33.7687 1091.66 33.7521C1091.75 33.7356 1091.82 33.7223 1091.87 33.7124L1092.14 34.9403C1092.05 34.9735 1091.93 35.0066 1091.77 35.0398C1091.61 35.0762 1091.41 35.0961 1091.17 35.0994C1090.78 35.1061 1090.42 35.0365 1090.08 34.8906C1089.74 34.7448 1089.47 34.5194 1089.26 34.2145C1089.05 33.9096 1088.95 33.5268 1088.95 33.0661V25.5341ZM1093.64 35V27.3636H1095.13V35H1093.64ZM1094.39 26.1854C1094.14 26.1854 1093.91 26.0992 1093.73 25.9268C1093.55 25.7512 1093.45 25.5424 1093.45 25.3004C1093.45 25.0552 1093.55 24.8464 1093.73 24.674C1093.91 24.4983 1094.14 24.4105 1094.39 24.4105C1094.65 24.4105 1094.87 24.4983 1095.06 24.674C1095.24 24.8464 1095.33 25.0552 1095.33 25.3004C1095.33 25.5424 1095.24 25.7512 1095.06 25.9268C1094.87 26.0992 1094.65 26.1854 1094.39 26.1854ZM1098.62 30.4659V35H1097.13V27.3636H1098.56V28.6065H1098.65C1098.83 28.2022 1099.1 27.8774 1099.48 27.6321C1099.85 27.3868 1100.33 27.2642 1100.9 27.2642C1101.42 27.2642 1101.88 27.3736 1102.27 27.5923C1102.66 27.8078 1102.97 28.1293 1103.18 28.5568C1103.4 28.9844 1103.5 29.513 1103.5 30.1428V35H1102.02V30.3217C1102.02 29.7682 1101.87 29.3357 1101.58 29.0241C1101.3 28.7093 1100.9 28.5518 1100.4 28.5518C1100.05 28.5518 1099.75 28.6264 1099.48 28.7756C1099.21 28.9247 1099 29.1435 1098.85 29.4318C1098.69 29.7169 1098.62 30.0616 1098.62 30.4659ZM1108.7 38.0227C1108.09 38.0227 1107.57 37.9432 1107.13 37.7841C1106.7 37.625 1106.34 37.4145 1106.07 37.1527C1105.79 36.8909 1105.59 36.6042 1105.45 36.2926L1106.73 35.7656C1106.82 35.9115 1106.94 36.0656 1107.09 36.228C1107.24 36.3937 1107.45 36.5346 1107.7 36.6506C1107.97 36.7666 1108.3 36.8246 1108.71 36.8246C1109.28 36.8246 1109.74 36.687 1110.11 36.4119C1110.48 36.1402 1110.66 35.706 1110.66 35.1094V33.608H1110.57C1110.48 33.7704 1110.35 33.951 1110.18 34.1499C1110.01 34.3487 1109.79 34.5211 1109.49 34.6669C1109.2 34.8127 1108.82 34.8857 1108.36 34.8857C1107.75 34.8857 1107.21 34.7448 1106.73 34.4631C1106.24 34.178 1105.86 33.7588 1105.58 33.2053C1105.3 32.6484 1105.16 31.964 1105.16 31.152C1105.16 30.34 1105.3 29.6439 1105.58 29.0639C1105.86 28.4839 1106.24 28.0398 1106.72 27.7315C1107.2 27.42 1107.75 27.2642 1108.37 27.2642C1108.84 27.2642 1109.22 27.3438 1109.51 27.5028C1109.81 27.6586 1110.03 27.8409 1110.2 28.0497C1110.36 28.2585 1110.49 28.4425 1110.58 28.6016H1110.69V27.3636H1112.14V35.169C1112.14 35.8253 1111.99 36.3639 1111.69 36.7848C1111.38 37.2057 1110.97 37.5173 1110.45 37.7195C1109.93 37.9216 1109.35 38.0227 1108.7 38.0227ZM1108.68 33.6527C1109.11 33.6527 1109.47 33.5533 1109.77 33.3544C1110.07 33.1522 1110.29 32.8639 1110.44 32.4893C1110.6 32.1115 1110.68 31.6591 1110.68 31.1321C1110.68 30.6184 1110.6 30.166 1110.45 29.7749C1110.3 29.3838 1110.07 29.0788 1109.78 28.8601C1109.48 28.638 1109.12 28.527 1108.68 28.527C1108.24 28.527 1107.86 28.643 1107.57 28.875C1107.27 29.1037 1107.04 29.4152 1106.89 29.8097C1106.74 30.2041 1106.67 30.6449 1106.67 31.1321C1106.67 31.6326 1106.74 32.0717 1106.89 32.4496C1107.05 32.8274 1107.27 33.1224 1107.57 33.3345C1107.87 33.5466 1108.24 33.6527 1108.68 33.6527ZM1119.86 29.228L1118.51 29.4666C1118.46 29.2943 1118.37 29.1302 1118.24 28.9744C1118.13 28.8187 1117.96 28.6911 1117.76 28.5916C1117.55 28.4922 1117.29 28.4425 1116.99 28.4425C1116.57 28.4425 1116.21 28.5369 1115.93 28.7259C1115.65 28.9115 1115.51 29.1518 1115.51 29.4467C1115.51 29.7019 1115.6 29.9074 1115.79 30.0632C1115.98 30.219 1116.29 30.3466 1116.71 30.446L1117.92 30.7244C1118.62 30.8868 1119.15 31.1371 1119.49 31.4751C1119.84 31.8132 1120.01 32.2524 1120.01 32.7926C1120.01 33.25 1119.88 33.6577 1119.61 34.0156C1119.35 34.3703 1118.98 34.6487 1118.51 34.8509C1118.05 35.053 1117.5 35.1541 1116.89 35.1541C1116.03 35.1541 1115.33 34.9718 1114.79 34.6072C1114.25 34.2393 1113.92 33.7173 1113.8 33.0412L1115.24 32.8224C1115.33 33.197 1115.51 33.4804 1115.79 33.6726C1116.07 33.8615 1116.43 33.956 1116.88 33.956C1117.36 33.956 1117.75 33.8549 1118.05 33.6527C1118.34 33.4472 1118.48 33.197 1118.48 32.902C1118.48 32.6634 1118.39 32.4628 1118.21 32.3004C1118.04 32.138 1117.77 32.0154 1117.4 31.9325L1116.11 31.6491C1115.4 31.4867 1114.87 31.2282 1114.53 30.8736C1114.19 30.5189 1114.02 30.0698 1114.02 29.5263C1114.02 29.0755 1114.15 28.6811 1114.4 28.343C1114.65 28.005 1115 27.7415 1115.45 27.5526C1115.89 27.3603 1116.4 27.2642 1116.97 27.2642C1117.8 27.2642 1118.45 27.4432 1118.92 27.8011C1119.39 28.1558 1119.71 28.6314 1119.86 29.228Z" fill="#0F172A"/>
    <path d="M1128 28.5L1131 31.5L1134 28.5" stroke="#0F172A" stroke-linecap="round" stroke-linejoin="round"/>
    <rect x="1169" y="14" width="130" height="32" rx="6" fill="#0F172A"/>
    <g clip-path="url(#clip0_1454_4016)">
    <path d="M1191 27V25.41C1191 24.52 1192.08 24.07 1192.71 24.7L1197.3 29.29C1197.69 29.68 1197.69 30.31 1197.3 30.7L1192.71 35.29C1192.08 35.92 1191 35.48 1191 34.59V32.9C1186 32.9 1182.5 34.5 1180 38C1181 33 1184 28 1191 27Z" fill="white"/>
    </g>
    <path d="M1215.67 27.4929C1215.62 27.0223 1215.4 26.6577 1215.02 26.3991C1214.63 26.1373 1214.15 26.0064 1213.56 26.0064C1213.15 26.0064 1212.79 26.0727 1212.48 26.2053C1212.18 26.3345 1211.94 26.5135 1211.77 26.7422C1211.6 26.9676 1211.52 27.2244 1211.52 27.5128C1211.52 27.7547 1211.58 27.9635 1211.69 28.1392C1211.81 28.3149 1211.96 28.4624 1212.14 28.5817C1212.33 28.6977 1212.53 28.7955 1212.75 28.875C1212.96 28.9512 1213.17 29.0142 1213.37 29.0639L1214.36 29.3224C1214.69 29.402 1215.02 29.5097 1215.36 29.6456C1215.71 29.7815 1216.02 29.9605 1216.31 30.1825C1216.6 30.4046 1216.84 30.6797 1217.02 31.0078C1217.2 31.3359 1217.29 31.7287 1217.29 32.1861C1217.29 32.7628 1217.14 33.2749 1216.85 33.7223C1216.55 34.1697 1216.12 34.5227 1215.56 34.7812C1215 35.0398 1214.32 35.169 1213.52 35.169C1212.76 35.169 1212.1 35.0481 1211.55 34.8061C1210.99 34.5642 1210.55 34.2211 1210.24 33.777C1209.92 33.3295 1209.75 32.7992 1209.72 32.1861H1211.26C1211.29 32.554 1211.41 32.8606 1211.62 33.1058C1211.83 33.3478 1212.1 33.5284 1212.43 33.6477C1212.76 33.7637 1213.12 33.8217 1213.51 33.8217C1213.95 33.8217 1214.33 33.7538 1214.67 33.6179C1215.01 33.4787 1215.28 33.2865 1215.48 33.0412C1215.67 32.7926 1215.77 32.5026 1215.77 32.1712C1215.77 31.8696 1215.69 31.6226 1215.51 31.4304C1215.34 31.2382 1215.11 31.0791 1214.82 30.9531C1214.53 30.8272 1214.21 30.7161 1213.84 30.62L1212.64 30.2919C1211.82 30.0698 1211.18 29.7434 1210.7 29.3125C1210.23 28.8816 1209.99 28.3116 1209.99 27.6023C1209.99 27.0156 1210.15 26.5036 1210.47 26.0661C1210.78 25.6286 1211.22 25.2888 1211.76 25.0469C1212.3 24.8016 1212.92 24.679 1213.6 24.679C1214.29 24.679 1214.9 24.8 1215.42 25.0419C1215.95 25.2839 1216.37 25.617 1216.68 26.0412C1216.98 26.4621 1217.14 26.946 1217.15 27.4929H1215.67ZM1220.5 30.4659V35H1219.01V24.8182H1220.48V28.6065H1220.57C1220.75 28.1955 1221.02 27.8691 1221.39 27.6271C1221.76 27.3852 1222.24 27.2642 1222.83 27.2642C1223.36 27.2642 1223.81 27.3719 1224.2 27.5874C1224.6 27.8028 1224.9 28.1243 1225.12 28.5518C1225.34 28.9761 1225.45 29.5064 1225.45 30.1428V35H1223.96V30.3217C1223.96 29.7616 1223.82 29.3274 1223.53 29.0192C1223.24 28.7076 1222.84 28.5518 1222.33 28.5518C1221.97 28.5518 1221.66 28.6264 1221.38 28.7756C1221.11 28.9247 1220.89 29.1435 1220.73 29.4318C1220.57 29.7169 1220.5 30.0616 1220.5 30.4659ZM1229.65 35.169C1229.17 35.169 1228.73 35.0795 1228.34 34.9006C1227.95 34.7183 1227.64 34.4548 1227.41 34.1101C1227.19 33.7654 1227.07 33.3428 1227.07 32.8423C1227.07 32.4115 1227.16 32.0568 1227.32 31.7784C1227.49 31.5 1227.71 31.2796 1227.99 31.1172C1228.27 30.9548 1228.59 30.8321 1228.94 30.7493C1229.29 30.6664 1229.64 30.6035 1230 30.5604C1230.46 30.5073 1230.83 30.4643 1231.11 30.4311C1231.4 30.3946 1231.61 30.3366 1231.74 30.2571C1231.87 30.1776 1231.93 30.0483 1231.93 29.8693V29.8345C1231.93 29.4003 1231.81 29.0639 1231.56 28.8253C1231.32 28.5866 1230.96 28.4673 1230.48 28.4673C1229.98 28.4673 1229.58 28.5784 1229.3 28.8004C1229.01 29.0192 1228.81 29.2628 1228.7 29.5312L1227.31 29.2131C1227.47 28.7491 1227.71 28.3745 1228.03 28.0895C1228.35 27.8011 1228.72 27.5923 1229.14 27.4631C1229.56 27.3305 1230 27.2642 1230.46 27.2642C1230.76 27.2642 1231.09 27.3007 1231.43 27.3736C1231.77 27.4432 1232.09 27.5724 1232.39 27.7614C1232.69 27.9503 1232.94 28.2204 1233.13 28.5717C1233.33 28.9197 1233.42 29.3722 1233.42 29.929V35H1231.97V33.956H1231.91C1231.81 34.1482 1231.67 34.3371 1231.48 34.5227C1231.29 34.7083 1231.04 34.8625 1230.74 34.9851C1230.44 35.1077 1230.07 35.169 1229.65 35.169ZM1229.98 33.9759C1230.39 33.9759 1230.74 33.8946 1231.03 33.7322C1231.33 33.5698 1231.55 33.3577 1231.7 33.0959C1231.86 32.8307 1231.94 32.5473 1231.94 32.2457V31.2614C1231.88 31.3144 1231.78 31.3641 1231.63 31.4105C1231.48 31.4536 1231.31 31.4917 1231.11 31.5249C1230.92 31.5547 1230.74 31.5829 1230.55 31.6094C1230.37 31.6326 1230.22 31.6525 1230.1 31.669C1229.81 31.7055 1229.54 31.7668 1229.31 31.853C1229.07 31.9392 1228.88 32.0634 1228.74 32.2259C1228.6 32.3849 1228.53 32.5971 1228.53 32.8622C1228.53 33.2301 1228.67 33.5085 1228.94 33.6974C1229.21 33.883 1229.56 33.9759 1229.98 33.9759ZM1235.4 35V27.3636H1236.84V28.5767H1236.92C1237.06 28.1657 1237.3 27.8426 1237.65 27.6072C1238.01 27.3686 1238.41 27.2493 1238.86 27.2493C1238.95 27.2493 1239.06 27.2526 1239.19 27.2592C1239.31 27.2659 1239.42 27.2741 1239.49 27.2841V28.706C1239.43 28.6894 1239.32 28.6712 1239.17 28.6513C1239.02 28.6281 1238.87 28.6165 1238.71 28.6165C1238.36 28.6165 1238.05 28.6911 1237.77 28.8402C1237.5 28.986 1237.29 29.1899 1237.13 29.4517C1236.97 29.7102 1236.89 30.0052 1236.89 30.3366V35H1235.4ZM1243.79 35.1541C1243.04 35.1541 1242.39 34.9934 1241.85 34.6719C1241.31 34.3471 1240.89 33.8913 1240.6 33.3047C1240.3 32.7147 1240.16 32.0237 1240.16 31.2315C1240.16 30.4493 1240.3 29.7599 1240.6 29.1634C1240.89 28.5668 1241.3 28.1011 1241.83 27.7663C1242.36 27.4316 1242.98 27.2642 1243.69 27.2642C1244.12 27.2642 1244.54 27.3355 1244.94 27.478C1245.35 27.6205 1245.71 27.8442 1246.03 28.1491C1246.35 28.4541 1246.6 28.8501 1246.79 29.3374C1246.98 29.8213 1247.07 30.4096 1247.07 31.1023V31.6293H1241V30.5156H1245.61C1245.61 30.1245 1245.53 29.7782 1245.37 29.4766C1245.21 29.1716 1244.99 28.9313 1244.7 28.7557C1244.42 28.58 1244.08 28.4922 1243.7 28.4922C1243.28 28.4922 1242.92 28.5949 1242.6 28.8004C1242.3 29.0026 1242.06 29.2678 1241.89 29.5959C1241.72 29.9207 1241.64 30.2737 1241.64 30.6548V31.5249C1241.64 32.0353 1241.73 32.4695 1241.91 32.8274C1242.09 33.1854 1242.34 33.4588 1242.67 33.6477C1242.99 33.8333 1243.37 33.9261 1243.81 33.9261C1244.09 33.9261 1244.35 33.8864 1244.58 33.8068C1244.81 33.724 1245.01 33.6013 1245.18 33.4389C1245.35 33.2765 1245.48 33.076 1245.57 32.8374L1246.97 33.0909C1246.86 33.5052 1246.66 33.8681 1246.37 34.1797C1246.08 34.4879 1245.72 34.7282 1245.28 34.9006C1244.84 35.0696 1244.35 35.1541 1243.79 35.1541ZM1255.84 35H1252.54V24.8182H1255.94C1256.94 24.8182 1257.8 25.022 1258.51 25.4297C1259.23 25.834 1259.78 26.4157 1260.16 27.1747C1260.54 27.9304 1260.74 28.8369 1260.74 29.8942C1260.74 30.9548 1260.54 31.8662 1260.15 32.6286C1259.77 33.3909 1259.21 33.9775 1258.48 34.3885C1257.75 34.7962 1256.87 35 1255.84 35ZM1254.08 33.6577H1255.75C1256.53 33.6577 1257.17 33.5118 1257.69 33.2202C1258.2 32.9252 1258.59 32.4993 1258.84 31.9425C1259.1 31.3823 1259.22 30.6996 1259.22 29.8942C1259.22 29.0954 1259.1 28.4176 1258.84 27.8608C1258.59 27.304 1258.21 26.8814 1257.71 26.593C1257.21 26.3047 1256.59 26.1605 1255.85 26.1605H1254.08V33.6577ZM1265.82 35.1541C1265.07 35.1541 1264.42 34.9934 1263.87 34.6719C1263.33 34.3471 1262.92 33.8913 1262.62 33.3047C1262.33 32.7147 1262.18 32.0237 1262.18 31.2315C1262.18 30.4493 1262.33 29.7599 1262.62 29.1634C1262.92 28.5668 1263.33 28.1011 1263.85 27.7663C1264.38 27.4316 1265 27.2642 1265.71 27.2642C1266.14 27.2642 1266.56 27.3355 1266.97 27.478C1267.37 27.6205 1267.73 27.8442 1268.06 28.1491C1268.38 28.4541 1268.63 28.8501 1268.82 29.3374C1269 29.8213 1269.09 30.4096 1269.09 31.1023V31.6293H1263.02V30.5156H1267.64C1267.64 30.1245 1267.56 29.7782 1267.4 29.4766C1267.24 29.1716 1267.02 28.9313 1266.73 28.7557C1266.44 28.58 1266.11 28.4922 1265.72 28.4922C1265.31 28.4922 1264.94 28.5949 1264.63 28.8004C1264.32 29.0026 1264.08 29.2678 1263.91 29.5959C1263.75 29.9207 1263.67 30.2737 1263.67 30.6548V31.5249C1263.67 32.0353 1263.75 32.4695 1263.93 32.8274C1264.12 33.1854 1264.37 33.4588 1264.69 33.6477C1265.02 33.8333 1265.4 33.9261 1265.83 33.9261C1266.11 33.9261 1266.37 33.8864 1266.6 33.8068C1266.84 33.724 1267.04 33.6013 1267.2 33.4389C1267.37 33.2765 1267.5 33.076 1267.59 32.8374L1269 33.0909C1268.89 33.5052 1268.68 33.8681 1268.39 34.1797C1268.1 34.4879 1267.74 34.7282 1267.3 34.9006C1266.87 35.0696 1266.37 35.1541 1265.82 35.1541ZM1270.74 35V27.3636H1272.17V28.6065H1272.26C1272.42 28.1856 1272.68 27.8575 1273.05 27.6222C1273.41 27.3835 1273.84 27.2642 1274.34 27.2642C1274.85 27.2642 1275.28 27.3835 1275.63 27.6222C1275.97 27.8608 1276.23 28.1889 1276.4 28.6065H1276.48C1276.66 28.1989 1276.95 27.8741 1277.35 27.6321C1277.74 27.3868 1278.22 27.2642 1278.77 27.2642C1279.46 27.2642 1280.03 27.4813 1280.46 27.9155C1280.9 28.3497 1281.12 29.0043 1281.12 29.8793V35H1279.64V30.0185C1279.64 29.5014 1279.5 29.1269 1279.22 28.8949C1278.93 28.6629 1278.6 28.5469 1278.21 28.5469C1277.72 28.5469 1277.35 28.696 1277.08 28.9943C1276.81 29.2893 1276.67 29.6688 1276.67 30.1328V35H1275.19V29.924C1275.19 29.5097 1275.06 29.1766 1274.81 28.9247C1274.55 28.6728 1274.21 28.5469 1273.8 28.5469C1273.51 28.5469 1273.25 28.6214 1273.02 28.7706C1272.78 28.9164 1272.59 29.1203 1272.44 29.3821C1272.3 29.6439 1272.23 29.9472 1272.23 30.2919V35H1270.74ZM1286.33 35.1541C1285.62 35.1541 1284.99 34.9901 1284.46 34.6619C1283.93 34.3338 1283.51 33.8748 1283.22 33.2848C1282.92 32.6948 1282.77 32.0054 1282.77 31.2166C1282.77 30.4245 1282.92 29.7318 1283.22 29.1385C1283.51 28.5452 1283.93 28.0845 1284.46 27.7564C1284.99 27.4283 1285.62 27.2642 1286.33 27.2642C1287.05 27.2642 1287.67 27.4283 1288.21 27.7564C1288.74 28.0845 1289.16 28.5452 1289.45 29.1385C1289.75 29.7318 1289.89 30.4245 1289.89 31.2166C1289.89 32.0054 1289.75 32.6948 1289.45 33.2848C1289.16 33.8748 1288.74 34.3338 1288.21 34.6619C1287.67 34.9901 1287.05 35.1541 1286.33 35.1541ZM1286.34 33.9062C1286.8 33.9062 1287.19 33.7836 1287.49 33.5384C1287.8 33.2931 1288.02 32.9666 1288.17 32.5589C1288.32 32.1513 1288.39 31.7022 1288.39 31.2116C1288.39 30.7244 1288.32 30.277 1288.17 29.8693C1288.02 29.4583 1287.8 29.1286 1287.49 28.88C1287.19 28.6314 1286.8 28.5071 1286.34 28.5071C1285.87 28.5071 1285.48 28.6314 1285.17 28.88C1284.87 29.1286 1284.64 29.4583 1284.49 29.8693C1284.35 30.277 1284.27 30.7244 1284.27 31.2116C1284.27 31.7022 1284.35 32.1513 1284.49 32.5589C1284.64 32.9666 1284.87 33.2931 1285.17 33.5384C1285.48 33.7836 1285.87 33.9062 1286.34 33.9062Z" fill="white"/>
    <rect x="1315.5" y="14.5" width="93" height="31" rx="5.5" fill="#F8FAFC"/>
    <rect x="1315.5" y="14.5" width="93" height="31" rx="5.5" stroke="#D8E0EB"/>
    <path d="M1327.52 35.169C1326.74 35.1657 1326.07 34.9586 1325.51 34.5476C1324.95 34.1366 1324.53 33.5384 1324.23 32.7528C1323.94 31.9673 1323.79 31.0211 1323.79 29.9141C1323.79 28.8104 1323.94 27.8674 1324.23 27.0852C1324.53 26.303 1324.96 25.7064 1325.52 25.2955C1326.08 24.8845 1326.75 24.679 1327.52 24.679C1328.3 24.679 1328.97 24.8861 1329.53 25.3004C1330.08 25.7114 1330.51 26.308 1330.81 27.0902C1331.1 27.8691 1331.25 28.8104 1331.25 29.9141C1331.25 31.0244 1331.11 31.9723 1330.81 32.7578C1330.52 33.54 1330.09 34.1383 1329.53 34.5526C1328.98 34.9635 1328.31 35.169 1327.52 35.169ZM1327.52 33.8416C1328.21 33.8416 1328.75 33.5052 1329.14 32.8324C1329.53 32.1596 1329.73 31.1868 1329.73 29.9141C1329.73 29.0689 1329.64 28.3546 1329.46 27.7713C1329.28 27.1847 1329.03 26.7405 1328.7 26.4389C1328.37 26.134 1327.98 25.9815 1327.52 25.9815C1326.84 25.9815 1326.3 26.3196 1325.91 26.9957C1325.52 27.6719 1325.32 28.6446 1325.32 29.9141C1325.32 30.7625 1325.4 31.4801 1325.58 32.0668C1325.76 32.6501 1326.01 33.0926 1326.34 33.3942C1326.67 33.6925 1327.06 33.8416 1327.52 33.8416ZM1334.21 27.3636L1335.9 30.3366L1337.6 27.3636H1339.22L1336.84 31.1818L1339.24 35H1337.62L1335.9 32.1463L1334.18 35H1332.55L1334.93 31.1818L1332.58 27.3636H1334.21ZM1343.66 35.1541C1342.92 35.1541 1342.29 34.9867 1341.75 34.652C1341.22 34.3139 1340.82 33.8482 1340.53 33.255C1340.25 32.6617 1340.1 31.9822 1340.1 31.2166C1340.1 30.4411 1340.25 29.7566 1340.54 29.1634C1340.83 28.5668 1341.24 28.1011 1341.77 27.7663C1342.3 27.4316 1342.93 27.2642 1343.65 27.2642C1344.23 27.2642 1344.75 27.3719 1345.2 27.5874C1345.65 27.7995 1346.02 28.0978 1346.3 28.4822C1346.58 28.8667 1346.75 29.3158 1346.8 29.8295H1345.35C1345.27 29.4716 1345.09 29.1634 1344.81 28.9048C1344.52 28.6463 1344.15 28.517 1343.67 28.517C1343.26 28.517 1342.9 28.6264 1342.58 28.8452C1342.28 29.0606 1342.04 29.3688 1341.86 29.7699C1341.69 30.1676 1341.6 30.6383 1341.6 31.1818C1341.6 31.7386 1341.69 32.2192 1341.86 32.6236C1342.03 33.0279 1342.27 33.3411 1342.57 33.5632C1342.89 33.7853 1343.25 33.8963 1343.67 33.8963C1343.95 33.8963 1344.21 33.8449 1344.44 33.7422C1344.67 33.6361 1344.86 33.4853 1345.02 33.2898C1345.18 33.0942 1345.29 32.8589 1345.35 32.5838H1346.8C1346.75 33.0777 1346.59 33.5185 1346.32 33.9062C1346.05 34.294 1345.69 34.599 1345.24 34.821C1344.79 35.0431 1344.27 35.1541 1343.66 35.1541ZM1350.61 35.169C1350.13 35.169 1349.69 35.0795 1349.3 34.9006C1348.91 34.7183 1348.6 34.4548 1348.37 34.1101C1348.14 33.7654 1348.03 33.3428 1348.03 32.8423C1348.03 32.4115 1348.11 32.0568 1348.28 31.7784C1348.45 31.5 1348.67 31.2796 1348.95 31.1172C1349.23 30.9548 1349.55 30.8321 1349.9 30.7493C1350.24 30.6664 1350.6 30.6035 1350.96 30.5604C1351.42 30.5073 1351.79 30.4643 1352.07 30.4311C1352.36 30.3946 1352.57 30.3366 1352.7 30.2571C1352.82 30.1776 1352.89 30.0483 1352.89 29.8693V29.8345C1352.89 29.4003 1352.77 29.0639 1352.52 28.8253C1352.28 28.5866 1351.92 28.4673 1351.44 28.4673C1350.94 28.4673 1350.54 28.5784 1350.25 28.8004C1349.97 29.0192 1349.77 29.2628 1349.66 29.5312L1348.27 29.2131C1348.43 28.7491 1348.67 28.3745 1348.99 28.0895C1349.31 27.8011 1349.68 27.5923 1350.1 27.4631C1350.52 27.3305 1350.96 27.2642 1351.42 27.2642C1351.72 27.2642 1352.05 27.3007 1352.39 27.3736C1352.73 27.4432 1353.05 27.5724 1353.35 27.7614C1353.65 27.9503 1353.9 28.2204 1354.09 28.5717C1354.28 28.9197 1354.38 29.3722 1354.38 29.929V35H1352.93V33.956H1352.87C1352.77 34.1482 1352.63 34.3371 1352.44 34.5227C1352.24 34.7083 1352 34.8625 1351.7 34.9851C1351.39 35.1077 1351.03 35.169 1350.61 35.169ZM1350.94 33.9759C1351.35 33.9759 1351.7 33.8946 1351.99 33.7322C1352.28 33.5698 1352.51 33.3577 1352.66 33.0959C1352.82 32.8307 1352.89 32.5473 1352.89 32.2457V31.2614C1352.84 31.3144 1352.74 31.3641 1352.59 31.4105C1352.44 31.4536 1352.27 31.4917 1352.07 31.5249C1351.88 31.5547 1351.69 31.5829 1351.51 31.6094C1351.33 31.6326 1351.18 31.6525 1351.05 31.669C1350.77 31.7055 1350.5 31.7668 1350.26 31.853C1350.03 31.9392 1349.84 32.0634 1349.7 32.2259C1349.56 32.3849 1349.49 32.5971 1349.49 32.8622C1349.49 33.2301 1349.62 33.5085 1349.9 33.6974C1350.17 33.883 1350.51 33.9759 1350.94 33.9759ZM1357.34 35.0945C1357.07 35.0945 1356.83 34.9983 1356.64 34.8061C1356.44 34.6106 1356.35 34.3752 1356.35 34.1001C1356.35 33.8284 1356.44 33.5964 1356.64 33.4041C1356.83 33.2086 1357.07 33.1108 1357.34 33.1108C1357.61 33.1108 1357.85 33.2086 1358.04 33.4041C1358.24 33.5964 1358.33 33.8284 1358.33 34.1001C1358.33 34.2824 1358.29 34.4498 1358.2 34.6023C1358.11 34.7514 1357.99 34.8707 1357.84 34.9602C1357.69 35.0497 1357.52 35.0945 1357.34 35.0945ZM1361.3 35.0945C1361.03 35.0945 1360.8 34.9983 1360.6 34.8061C1360.41 34.6106 1360.31 34.3752 1360.31 34.1001C1360.31 33.8284 1360.41 33.5964 1360.6 33.4041C1360.8 33.2086 1361.03 33.1108 1361.3 33.1108C1361.58 33.1108 1361.81 33.2086 1362.01 33.4041C1362.2 33.5964 1362.3 33.8284 1362.3 34.1001C1362.3 34.2824 1362.25 34.4498 1362.16 34.6023C1362.07 34.7514 1361.95 34.8707 1361.8 34.9602C1361.65 35.0497 1361.49 35.0945 1361.3 35.0945ZM1365.27 35.0945C1365 35.0945 1364.76 34.9983 1364.57 34.8061C1364.37 34.6106 1364.28 34.3752 1364.28 34.1001C1364.28 33.8284 1364.37 33.5964 1364.57 33.4041C1364.76 33.2086 1365 33.1108 1365.27 33.1108C1365.54 33.1108 1365.78 33.2086 1365.97 33.4041C1366.17 33.5964 1366.26 33.8284 1366.26 34.1001C1366.26 34.2824 1366.22 34.4498 1366.12 34.6023C1366.04 34.7514 1365.92 34.8707 1365.77 34.9602C1365.62 35.0497 1365.45 35.0945 1365.27 35.0945ZM1371.41 35.1392C1370.73 35.1392 1370.12 35.0215 1369.58 34.7862C1369.05 34.5509 1368.63 34.2244 1368.31 33.8068C1368.01 33.3859 1367.84 32.8987 1367.82 32.3452H1369.38C1369.4 32.6468 1369.5 32.9086 1369.68 33.1307C1369.87 33.3494 1370.11 33.5185 1370.41 33.6378C1370.7 33.7571 1371.04 33.8168 1371.4 33.8168C1371.8 33.8168 1372.16 33.7472 1372.46 33.608C1372.78 33.4687 1373.02 33.2749 1373.2 33.0263C1373.37 32.7744 1373.46 32.4844 1373.46 32.1562C1373.46 31.8149 1373.37 31.5149 1373.2 31.2564C1373.02 30.9946 1372.77 30.7891 1372.44 30.6399C1372.1 30.4908 1371.7 30.4162 1371.23 30.4162H1370.37V29.1634H1371.23C1371.61 29.1634 1371.94 29.0954 1372.23 28.9595C1372.51 28.8236 1372.74 28.6347 1372.9 28.3928C1373.06 28.1475 1373.15 27.8608 1373.15 27.5327C1373.15 27.2178 1373.07 26.9444 1372.93 26.7124C1372.79 26.477 1372.59 26.2931 1372.34 26.1605C1372.08 26.0279 1371.78 25.9616 1371.43 25.9616C1371.1 25.9616 1370.79 26.023 1370.5 26.1456C1370.22 26.2649 1369.98 26.4373 1369.81 26.6626C1369.63 26.8847 1369.53 27.1515 1369.52 27.4631H1368.03C1368.05 26.9129 1368.21 26.429 1368.52 26.0114C1368.83 25.5937 1369.24 25.2673 1369.75 25.032C1370.26 24.7966 1370.83 24.679 1371.45 24.679C1372.1 24.679 1372.67 24.8066 1373.14 25.0618C1373.62 25.3137 1373.99 25.6501 1374.24 26.071C1374.51 26.492 1374.64 26.9527 1374.63 27.4531C1374.64 28.0232 1374.48 28.5071 1374.16 28.9048C1373.84 29.3026 1373.41 29.5694 1372.88 29.7053V29.7848C1373.56 29.8875 1374.08 30.156 1374.45 30.5902C1374.83 31.0244 1375.01 31.563 1375.01 32.206C1375.01 32.7661 1374.86 33.2682 1374.54 33.7124C1374.23 34.1565 1373.81 34.5062 1373.27 34.7614C1372.73 35.0133 1372.11 35.1392 1371.41 35.1392ZM1380.28 24.679C1380.73 24.6823 1381.18 24.7652 1381.62 24.9276C1382.06 25.09 1382.46 25.3551 1382.81 25.723C1383.17 26.0909 1383.45 26.5881 1383.67 27.2145C1383.88 27.8376 1383.99 28.6132 1383.99 29.5412C1383.99 30.4328 1383.9 31.2266 1383.73 31.9226C1383.55 32.6153 1383.29 33.2003 1382.95 33.6776C1382.62 34.1548 1382.22 34.5178 1381.75 34.7663C1381.27 35.0149 1380.74 35.1392 1380.15 35.1392C1379.54 35.1392 1379 35.0199 1378.53 34.7812C1378.06 34.5426 1377.68 34.2128 1377.38 33.7919C1377.09 33.3677 1376.9 32.8804 1376.83 32.3303H1378.35C1378.45 32.7678 1378.65 33.1224 1378.95 33.3942C1379.26 33.6626 1379.66 33.7969 1380.15 33.7969C1380.89 33.7969 1381.47 33.4721 1381.89 32.8224C1382.31 32.1695 1382.52 31.258 1382.52 30.0881H1382.44C1382.27 30.3731 1382.06 30.6184 1381.8 30.8239C1381.54 31.0294 1381.25 31.1884 1380.94 31.3011C1380.62 31.4138 1380.28 31.4702 1379.92 31.4702C1379.33 31.4702 1378.8 31.326 1378.32 31.0376C1377.84 30.7493 1377.45 30.3532 1377.17 29.8494C1376.88 29.3456 1376.74 28.7706 1376.74 28.1243C1376.74 27.4813 1376.89 26.898 1377.18 26.3743C1377.47 25.8506 1377.88 25.4363 1378.41 25.1314C1378.94 24.8232 1379.56 24.6723 1380.28 24.679ZM1380.28 25.9716C1379.89 25.9716 1379.54 26.0677 1379.23 26.2599C1378.92 26.4489 1378.68 26.7057 1378.5 27.0305C1378.32 27.352 1378.23 27.71 1378.23 28.1044C1378.23 28.4988 1378.32 28.8568 1378.49 29.1783C1378.67 29.4964 1378.9 29.75 1379.21 29.9389C1379.51 30.1245 1379.86 30.2173 1380.25 30.2173C1380.54 30.2173 1380.81 30.161 1381.07 30.0483C1381.32 29.9356 1381.54 29.7798 1381.73 29.581C1381.92 29.3788 1382.06 29.1501 1382.17 28.8949C1382.28 28.6397 1382.33 28.3712 1382.33 28.0895C1382.33 27.715 1382.24 27.367 1382.06 27.0455C1381.88 26.724 1381.64 26.4654 1381.33 26.2699C1381.03 26.071 1380.67 25.9716 1380.28 25.9716ZM1389.03 35.1541C1388.29 35.1541 1387.65 34.9867 1387.12 34.652C1386.59 34.3139 1386.18 33.8482 1385.89 33.255C1385.61 32.6617 1385.47 31.9822 1385.47 31.2166C1385.47 30.4411 1385.61 29.7566 1385.9 29.1634C1386.2 28.5668 1386.61 28.1011 1387.14 27.7663C1387.67 27.4316 1388.29 27.2642 1389.01 27.2642C1389.59 27.2642 1390.11 27.3719 1390.56 27.5874C1391.02 27.7995 1391.38 28.0978 1391.66 28.4822C1391.94 28.8667 1392.11 29.3158 1392.16 29.8295H1390.72C1390.64 29.4716 1390.45 29.1634 1390.17 28.9048C1389.89 28.6463 1389.51 28.517 1389.04 28.517C1388.62 28.517 1388.26 28.6264 1387.95 28.8452C1387.64 29.0606 1387.4 29.3688 1387.23 29.7699C1387.05 30.1676 1386.97 30.6383 1386.97 31.1818C1386.97 31.7386 1387.05 32.2192 1387.22 32.6236C1387.39 33.0279 1387.63 33.3411 1387.94 33.5632C1388.25 33.7853 1388.62 33.8963 1389.04 33.8963C1389.32 33.8963 1389.57 33.8449 1389.8 33.7422C1390.03 33.6361 1390.23 33.4853 1390.38 33.2898C1390.54 33.0942 1390.65 32.8589 1390.72 32.5838H1392.16C1392.11 33.0777 1391.95 33.5185 1391.68 33.9062C1391.41 34.294 1391.05 34.599 1390.6 34.821C1390.16 35.0431 1389.63 35.1541 1389.03 35.1541ZM1397.04 35.1541C1396.29 35.1541 1395.64 34.9934 1395.1 34.6719C1394.56 34.3471 1394.14 33.8913 1393.85 33.3047C1393.56 32.7147 1393.41 32.0237 1393.41 31.2315C1393.41 30.4493 1393.56 29.7599 1393.85 29.1634C1394.14 28.5668 1394.55 28.1011 1395.08 27.7663C1395.61 27.4316 1396.23 27.2642 1396.94 27.2642C1397.37 27.2642 1397.79 27.3355 1398.19 27.478C1398.6 27.6205 1398.96 27.8442 1399.28 28.1491C1399.6 28.4541 1399.86 28.8501 1400.04 29.3374C1400.23 29.8213 1400.32 30.4096 1400.32 31.1023V31.6293H1394.25V30.5156H1398.86C1398.86 30.1245 1398.78 29.7782 1398.63 29.4766C1398.47 29.1716 1398.24 28.9313 1397.95 28.7557C1397.67 28.58 1397.33 28.4922 1396.95 28.4922C1396.53 28.4922 1396.17 28.5949 1395.86 28.8004C1395.55 29.0026 1395.31 29.2678 1395.14 29.5959C1394.97 29.9207 1394.89 30.2737 1394.89 30.6548V31.5249C1394.89 32.0353 1394.98 32.4695 1395.16 32.8274C1395.34 33.1854 1395.6 33.4588 1395.92 33.6477C1396.25 33.8333 1396.63 33.9261 1397.06 33.9261C1397.34 33.9261 1397.6 33.8864 1397.83 33.8068C1398.06 33.724 1398.26 33.6013 1398.43 33.4389C1398.6 33.2765 1398.73 33.076 1398.82 32.8374L1400.23 33.0909C1400.11 33.5052 1399.91 33.8681 1399.62 34.1797C1399.33 34.4879 1398.97 34.7282 1398.53 34.9006C1398.1 35.0696 1397.6 35.1541 1397.04 35.1541Z" fill="#0F172A"/>
    <defs>
    <clipPath id="clip0_1454_4016">
    <rect width="24" height="24" fill="white" transform="matrix(-1 0 0 1 1201 18)"/>
    </clipPath>
    </defs>
    </svg>
    